<svg width="530" height="201" viewBox="0 0 530 201" fill="none" xmlns="http://www.w3.org/2000/svg">
<path d="M33.552 136.08C30 136.08 27.456 135.312 25.92 133.776C24.384 132.144 23.616 129.12 23.616 124.704C23.616 121.728 23.904 117.936 24.48 113.328C25.152 108.624 26.208 102.192 27.648 94.0324C30.144 78.9603 32.112 65.9043 33.552 54.8643C34.416 47.9523 34.848 42.1923 34.848 37.5843C34.848 33.2643 33.264 31.1043 30.096 31.1043C27.6 31.1043 24.576 32.4003 21.024 34.9923C17.568 37.4883 13.728 41.5203 9.50404 47.0883C8.16004 48.9123 6.67204 49.8243 5.04004 49.8243C3.69604 49.8243 2.49604 49.2003 1.44004 47.9523C0.480043 46.6083 4.29619e-05 45.1203 4.29619e-05 43.4883C4.29619e-05 41.9523 0.288043 40.4163 0.864043 38.8803C1.53604 37.2483 2.59204 35.4243 4.03204 33.4084C8.64004 26.9763 13.776 22.0323 19.44 18.5763C25.104 15.0243 30.768 13.2483 36.432 13.2483C41.712 13.2483 45.744 14.9283 48.528 18.2883C51.408 21.6483 52.848 26.5443 52.848 32.9763C52.848 35.5683 52.608 38.6403 52.128 42.1923C51.648 45.6484 51.216 48.4804 50.832 50.6884C50.448 52.8964 50.16 54.4323 49.968 55.2963C55.44 39.6483 61.584 28.7523 68.4 22.6083C75.216 16.3683 82.704 13.2483 90.8641 13.2483C97.1041 13.2483 102 15.4563 105.552 19.8723C109.2 24.2883 111.024 30.5283 111.024 38.5923C111.024 41.7603 110.592 45.6963 109.728 50.4003C114.528 37.1523 120.144 27.6483 126.576 21.8883C133.008 16.1283 140.4 13.2483 148.752 13.2483C155.472 13.2483 160.608 15.4083 164.16 19.7283C167.808 24.0483 169.632 30.0963 169.632 37.8723C169.632 42.0963 169.008 47.2323 167.76 53.2803L158.976 94.4644C158.016 99.2643 157.536 103.392 157.536 106.848C157.536 110.88 158.448 113.904 160.272 115.92C162.192 117.936 164.832 118.944 168.192 118.944C171.36 118.944 174.432 117.888 177.408 115.776C180.48 113.664 184.08 110.16 188.208 105.264C189.36 103.92 190.656 103.248 192.096 103.248C193.344 103.248 194.304 103.824 194.976 104.976C195.744 106.128 196.128 107.712 196.128 109.728C196.128 113.472 195.216 116.448 193.392 118.656C188.4 124.704 183.456 129.12 178.56 131.904C173.664 134.688 168.528 136.08 163.152 136.08C154.992 136.08 148.608 133.68 144 128.88C139.392 123.984 137.088 117.456 137.088 109.296C137.088 103.632 138.24 95.4243 140.544 84.6723L146.304 58.3203C146.496 57.4563 146.832 55.9203 147.312 53.7123C147.792 51.5043 148.176 49.4403 148.464 47.5203C148.752 45.5043 148.896 43.5363 148.896 41.6163C148.896 38.2563 148.224 35.7603 146.88 34.1284C145.632 32.4003 143.808 31.5363 141.408 31.5363C136.896 31.5363 132.144 34.4643 127.152 40.3203C122.256 46.0803 117.552 55.6803 113.04 69.1204C108.624 82.5603 105.024 100.032 102.24 121.536C101.568 127.296 100.368 131.184 98.64 133.2C97.008 135.12 94.32 136.08 90.576 136.08C87.312 136.08 84.912 135.312 83.376 133.776C81.936 132.24 81.216 129.36 81.216 125.136C81.216 121.2 81.744 116.064 82.8 109.728C83.856 103.296 85.2 95.7604 86.8321 87.1204C91.248 63.8883 93.456 48.9123 93.456 42.1923C93.456 38.5443 92.736 35.8563 91.296 34.1284C89.952 32.4003 87.888 31.5363 85.104 31.5363C80.4 31.5363 75.552 34.2243 70.56 39.6003C65.568 44.8803 60.672 54.3363 55.872 67.9683C51.168 81.5043 47.232 99.8403 44.064 122.976C43.392 127.872 42.384 131.28 41.04 133.2C39.792 135.12 37.296 136.08 33.552 136.08ZM199.213 136.08C194.893 136.08 191.341 134.112 188.557 130.176C185.869 126.144 184.525 121.152 184.525 115.2C184.525 108 185.005 101.424 185.965 95.4724C186.925 89.4244 188.509 83.0403 190.717 76.3203C191.677 73.4403 193.021 71.3763 194.749 70.1284C196.477 68.8803 199.213 68.2563 202.957 68.2563C205.069 68.2563 206.509 68.5923 207.277 69.2643C208.141 69.9363 208.573 70.9443 208.573 72.2883C208.573 73.0563 208.045 75.6484 206.989 80.0644C206.029 83.6164 205.261 86.8324 204.685 89.7124C202.765 99.7924 201.805 106.512 201.805 109.872C201.805 111.888 202.045 113.328 202.525 114.192C203.005 114.96 203.773 115.344 204.829 115.344C206.269 115.344 208.045 113.904 210.157 111.024C212.365 108.144 214.669 103.776 217.069 97.9203C219.565 92.0643 221.965 84.8643 224.269 76.3203C225.037 73.4403 226.189 71.3763 227.725 70.1284C229.357 68.8803 231.757 68.2563 234.925 68.2563C237.133 68.2563 238.669 68.5443 239.533 69.1204C240.397 69.6003 240.829 70.5603 240.829 72.0003C240.829 74.4003 239.629 80.9763 237.229 91.7284C234.541 104.016 233.197 111.6 233.197 114.48C233.197 116.304 233.581 117.744 234.349 118.8C235.117 119.76 236.125 120.24 237.373 120.24C239.293 120.24 241.549 119.088 244.141 116.784C246.829 114.384 250.381 110.544 254.797 105.264C255.949 103.92 257.245 103.248 258.685 103.248C259.933 103.248 260.893 103.824 261.565 104.976C262.333 106.128 262.717 107.712 262.717 109.728C262.717 113.568 261.805 116.544 259.981 118.656C255.853 123.744 251.389 127.92 246.589 131.184C241.885 134.448 236.509 136.08 230.461 136.08C225.853 136.08 222.445 134.304 220.237 130.752C218.125 127.2 217.069 122.208 217.069 115.776C215.437 122.304 212.989 127.344 209.725 130.896C206.461 134.352 202.957 136.08 199.213 136.08ZM305.616 103.248C306.864 103.248 307.824 103.824 308.496 104.976C309.264 106.128 309.648 107.712 309.648 109.728C309.648 113.568 308.736 116.544 306.912 118.656C302.784 123.744 298.272 127.92 293.376 131.184C288.576 134.448 283.104 136.08 276.96 136.08C268.512 136.08 262.224 132.24 258.096 124.56C254.064 116.88 252.048 106.944 252.048 94.7524C252.048 83.0403 253.536 69.6964 256.512 54.7204C259.584 39.7443 264.048 26.8803 269.904 16.1283C275.856 5.37634 282.912 0.000343323 291.072 0.000343323C295.68 0.000343323 299.28 2.16034 301.872 6.48035C304.56 10.7043 305.904 16.8004 305.904 24.7684C305.904 36.1923 302.736 49.4403 296.4 64.5123C290.064 79.5844 281.472 94.5124 270.624 109.296C271.296 113.232 272.4 116.064 273.936 117.792C275.472 119.424 277.488 120.24 279.984 120.24C283.92 120.24 287.376 119.136 290.352 116.928C293.328 114.624 297.12 110.736 301.728 105.264C302.88 103.92 304.176 103.248 305.616 103.248ZM287.904 14.2563C285.696 14.2563 283.2 18.2403 280.416 26.2083C277.632 34.1763 275.184 44.0643 273.072 55.8723C270.96 67.6803 269.808 79.0083 269.616 89.8563C276.432 78.6243 281.856 67.3923 285.888 56.1603C289.92 44.8323 291.936 34.5123 291.936 25.2003C291.936 17.9043 290.592 14.2563 287.904 14.2563ZM316.873 58.7524C312.841 58.7524 309.817 57.8404 307.801 56.0164C305.785 54.0963 304.777 51.4563 304.777 48.0964C304.777 44.7363 306.073 41.9523 308.665 39.7443C311.353 37.4403 314.665 36.2883 318.601 36.2883C322.153 36.2883 325.033 37.1523 327.241 38.8803C329.449 40.6083 330.553 43.0563 330.553 46.2243C330.553 50.0643 329.305 53.1363 326.809 55.4404C324.313 57.6484 321.001 58.7524 316.873 58.7524ZM315.721 136.08C309.481 136.08 304.921 133.872 302.041 129.456C299.257 125.04 297.865 119.184 297.865 111.888C297.865 107.568 298.393 102.048 299.449 95.3283C300.601 88.5123 302.041 82.1763 303.769 76.3203C304.633 73.2483 305.785 71.1363 307.225 69.9843C308.665 68.8323 310.969 68.2563 314.137 68.2563C319.033 68.2563 321.481 69.8883 321.481 73.1523C321.481 75.5524 320.569 81.1204 318.745 89.8563C316.441 100.416 315.289 107.568 315.289 111.312C315.289 114.192 315.673 116.4 316.441 117.936C317.209 119.472 318.505 120.24 320.329 120.24C322.057 120.24 324.217 119.04 326.809 116.64C329.401 114.24 332.857 110.448 337.177 105.264C338.329 103.92 339.625 103.248 341.065 103.248C342.313 103.248 343.273 103.824 343.945 104.976C344.713 106.128 345.097 107.712 345.097 109.728C345.097 113.568 344.185 116.544 342.361 118.656C332.857 130.272 323.977 136.08 315.721 136.08ZM343.671 136.08C340.023 136.08 337.431 134.16 335.895 130.32C334.455 126.48 333.735 120.336 333.735 111.888C333.735 99.4084 335.511 87.5523 339.063 76.3203C339.927 73.5363 341.319 71.5203 343.239 70.2723C345.255 68.9283 348.039 68.2563 351.591 68.2563C353.511 68.2563 354.855 68.4963 355.623 68.9763C356.391 69.4563 356.775 70.3683 356.775 71.7123C356.775 73.2483 356.055 76.7043 354.615 82.0804C353.655 85.9204 352.887 89.2803 352.311 92.1603C351.735 95.0403 351.255 98.5924 350.871 102.816C354.039 94.5604 357.591 87.8403 361.527 82.6563C365.463 77.4723 369.303 73.7763 373.047 71.5683C376.887 69.3603 380.391 68.2563 383.559 68.2563C389.799 68.2563 392.919 71.3763 392.919 77.6163C392.919 81.3603 391.863 88.1283 389.751 97.9203C387.927 106.272 387.015 111.792 387.015 114.48C387.015 118.32 388.407 120.24 391.191 120.24C393.111 120.24 395.367 119.088 397.959 116.784C400.647 114.384 404.199 110.544 408.615 105.264C409.767 103.92 411.063 103.248 412.503 103.248C413.751 103.248 414.711 103.824 415.383 104.976C416.151 106.128 416.535 107.712 416.535 109.728C416.535 113.568 415.623 116.544 413.799 118.656C409.671 123.744 405.207 127.92 400.407 131.184C395.703 134.448 390.327 136.08 384.279 136.08C379.383 136.08 375.687 134.688 373.191 131.904C370.695 129.024 369.447 124.896 369.447 119.52C369.447 116.832 370.119 112.032 371.463 105.12C372.711 99.0724 373.335 94.8964 373.335 92.5923C373.335 91.0563 372.807 90.2883 371.751 90.2883C370.503 90.2883 368.727 91.9203 366.423 95.1843C364.215 98.3524 361.911 102.576 359.511 107.856C357.207 113.136 355.335 118.704 353.895 124.56C352.839 129.072 351.591 132.144 350.151 133.776C348.807 135.312 346.647 136.08 343.671 136.08ZM478.612 103.536C479.86 103.536 480.82 104.16 481.492 105.408C482.26 106.56 482.644 108.048 482.644 109.872C482.644 112.08 482.308 113.808 481.636 115.056C480.964 116.304 479.908 117.408 478.468 118.368C470.212 123.936 464.164 128.064 460.324 130.752L451.108 136.944C447.46 156.816 442.66 172.416 436.708 183.744C430.852 195.168 423.364 200.88 414.244 200.88C409.348 200.88 405.364 199.344 402.292 196.272C399.22 193.296 397.684 189.36 397.684 184.464C397.684 177.648 400.372 170.304 405.748 162.432C411.124 154.656 421.204 145.056 435.988 133.632L436.852 128.016C435.22 130.608 433.06 132.624 430.372 134.064C427.78 135.408 425.188 136.08 422.596 136.08C416.644 136.08 411.892 133.92 408.34 129.6C404.788 125.28 403.012 119.616 403.012 112.608C403.012 104.928 404.788 97.6804 408.34 90.8643C411.892 83.9523 416.596 78.4323 422.452 74.3043C428.404 70.0803 434.692 67.9683 441.316 67.9683C443.428 67.9683 444.82 68.4003 445.492 69.2643C446.26 70.0323 446.884 71.4723 447.364 73.5843C449.188 73.2003 451.3 73.0083 453.7 73.0083C456.1 73.0083 457.78 73.3923 458.74 74.1603C459.796 74.8323 460.324 76.2243 460.324 78.3363C460.324 79.4883 460.276 80.4004 460.18 81.0724C459.796 84.0483 458.596 91.5843 456.58 103.68C456.196 105.984 455.764 108.528 455.284 111.312C454.9 114 454.468 116.88 453.988 119.952C461.38 114.192 468.484 109.104 475.3 104.688C476.548 103.92 477.652 103.536 478.612 103.536ZM427.78 121.536C429.988 121.536 432.1 120.192 434.116 117.504C436.132 114.816 437.572 110.976 438.436 105.984L443.044 81.3603C439.108 81.4563 435.46 82.9923 432.1 85.9683C428.74 88.8483 426.052 92.6883 424.036 97.4883C422.02 102.288 421.012 107.376 421.012 112.752C421.012 115.728 421.588 117.936 422.74 119.376C423.988 120.816 425.668 121.536 427.78 121.536ZM415.828 186.912C418.228 186.912 420.916 184.032 423.892 178.272C426.964 172.512 429.892 163.344 432.676 150.768C425.284 157.104 419.956 162.816 416.692 167.904C413.428 172.992 411.796 177.456 411.796 181.296C411.796 182.928 412.084 184.272 412.66 185.328C413.332 186.384 414.388 186.912 415.828 186.912ZM498.126 136.08C492.462 136.08 487.614 134.688 483.582 131.904C479.646 129.024 476.67 125.28 474.654 120.672C472.638 116.064 471.63 111.12 471.63 105.84C471.63 98.5443 472.974 92.0643 475.662 86.4004C478.446 80.6404 482.19 76.1763 486.894 73.0083C491.598 69.7443 496.878 68.1124 502.734 68.1124C508.398 68.1124 513.246 69.5524 517.278 72.4324C521.31 75.2163 524.334 78.9123 526.35 83.5203C528.366 88.1284 529.374 93.0724 529.374 98.3524C529.374 105.648 527.982 112.176 525.198 117.936C522.414 123.6 518.622 128.064 513.822 131.328C509.118 134.496 503.886 136.08 498.126 136.08ZM499.71 120.528C502.974 120.528 505.71 118.752 507.918 115.2C510.222 111.648 511.374 106.464 511.374 99.6484C511.374 94.3684 510.414 90.3843 508.494 87.6963C506.574 85.0083 504.27 83.6643 501.582 83.6643C498.126 83.6643 495.246 85.4403 492.942 88.9923C490.734 92.4483 489.63 97.6323 489.63 104.544C489.63 110.016 490.59 114.048 492.51 116.64C494.43 119.232 496.83 120.528 499.71 120.528Z" fill="black"/>
</svg>
